<svg
    xmlns="http://www.w3.org/2000/svg"
    x="0px"
    y="0px"
    width="48"
    height="48"
    viewBox="0 0 172 172"
    style=" fill:#000000;">
  <g
      fill="none"
      fill-rule="nonzero"
      stroke="none"
      stroke-width="1"
      stroke-linecap="butt"
      stroke-linejoin="miter"
      stroke-miterlimit="10"
      stroke-dasharray=""
      stroke-dashoffset="0"
      font-family="none"
      font-weight="none"
      font-size="none"
      text-anchor="none"
      style="mix-blend-mode: normal">
    <path
        d="M0,172v-172h172v172z"
        fill="none"></path>
    <g>
      <path
          d="M143.55192,28.44808c17.38633,17.38992 0.39058,51.9225 -31.39358,83.71025c-31.78417,31.77342 -66.32033,48.77275 -83.70667,31.39c-17.38992,-17.38992 -0.39417,-51.9225 31.39,-83.71025c31.78058,-31.777 66.32033,-48.77633 83.71025,-31.39z"
          fill="#ffb300"></path>
      <path
          d="M71.32983,103.69092c1.09292,14.9855 -1.23625,23.53892 -4.28208,28.42658c-6.50375,5.84442 -9.57467,6.50375 -9.57467,6.50375c0,0 -1.02842,-40.72817 0.086,-56.20458c0.07525,-1.04633 5.00233,-7.68983 5.00233,-7.68983c0,0 7.63967,13.48408 8.76842,28.96408zM99.9965,79.72558c1.09292,14.9855 -1.23983,23.53892 -4.28208,28.42658c-6.50375,5.84442 -9.57467,6.50375 -9.57467,6.50375c0,0 -1.02842,-40.72458 0.08242,-56.20458c0.07525,-1.04633 5.00233,-7.68983 5.00233,-7.68983c0,0 7.64683,13.48767 8.772,28.96408zM128.742,57.17925c1.09292,14.9855 -1.23983,23.53892 -4.28208,28.42658c-6.50375,5.84442 -9.57467,6.50375 -9.57467,6.50375c0,0 -1.02842,-40.72458 0.08242,-56.20458c0.07525,-1.04633 5.00233,-7.68983 5.00233,-7.68983c0,0 7.63967,13.48767 8.772,28.96408z"
          fill="#ffa000"></path>
      <g fill="#ffe082">
        <path d="M64.5,110.52075c0,15.51942 -7.02692,28.1005 -7.02692,28.1005c0,0 -7.02333,-12.58108 -7.02333,-28.1005c0,-15.51942 7.02333,-28.10408 7.02333,-28.10408c0,0 7.02692,12.58467 7.02692,28.10408zM93.21683,86.56258c0,15.523 -7.02333,28.10408 -7.02333,28.10408c0,0 -7.02333,-12.58108 -7.02692,-28.10408c0,-15.51583 7.02692,-28.1005 7.02692,-28.1005c0,0 7.02333,12.58467 7.02333,28.1005zM121.83333,63.93383c0,15.523 -7.02692,28.10408 -7.02692,28.10408c0,0 -7.02333,-12.58108 -7.02692,-28.10408c0,-15.51583 7.02692,-28.1005 7.02692,-28.1005c0,0 7.02692,12.58467 7.02692,28.1005z"></path>
      </g>
    </g>
  </g>
</svg>
