<svg
    xmlns="http://www.w3.org/2000/svg"
    x="0px"
    y="0px"
    width="48"
    height="48"
    viewBox="0 0 172 172"
    style=" fill:#000000;">
  <g
      fill="none"
      fill-rule="nonzero"
      stroke="none"
      stroke-width="1"
      stroke-linecap="butt"
      stroke-linejoin="miter"
      stroke-miterlimit="10"
      stroke-dasharray=""
      stroke-dashoffset="0"
      font-family="none"
      font-weight="none"
      font-size="none"
      text-anchor="none"
      style="mix-blend-mode: normal">
    <path
        d="M0,172v-172h172v172z"
        fill="none"></path>
    <g>
      <path
          d="M86,89.58333c-37.60139,0 -68.08333,10.42803 -68.08333,23.29167c0,12.86363 30.48195,23.29167 68.08333,23.29167c37.60139,0 68.08333,-10.42803 68.08333,-23.29167c0,-12.86363 -30.48195,-23.29167 -68.08333,-23.29167z"
          fill="#ef6c00"></path>
      <path
          d="M86,68.08333c-37.60139,0 -68.08333,10.42803 -68.08333,23.29167c0,12.86363 30.48195,23.29167 68.08333,23.29167c37.60139,0 68.08333,-10.42803 68.08333,-23.29167c0,-12.86363 -30.48195,-23.29167 -68.08333,-23.29167z"
          fill="#ef6c00"></path>
      <path
          d="M86,46.58333c-37.60139,0 -68.08333,10.42803 -68.08333,23.29167c0,12.86363 30.48195,23.29167 68.08333,23.29167c37.60139,0 68.08333,-10.42803 68.08333,-23.29167c0,-12.86363 -30.48195,-23.29167 -68.08333,-23.29167z"
          fill="#ef6c00"></path>
      <path
          d="M86,25.08333c-37.60139,0 -68.08333,10.42803 -68.08333,23.29167c0,12.86363 30.48195,23.29167 68.08333,23.29167c37.60139,0 68.08333,-10.42803 68.08333,-23.29167c0,-12.86363 -30.48195,-23.29167 -68.08333,-23.29167z"
          fill="#ef6c00"></path>
      <g fill="#ffcc80">
        <path d="M86,136.16667c-35.83333,0 -65.13783,-9.47792 -67.81817,-21.5h-0.26517c0,21.5 32.465,32.25 68.08333,32.25c35.61833,0 68.08333,-10.75 68.08333,-32.25h-0.26517c-2.68033,12.02208 -31.98483,21.5 -67.81817,21.5z"></path>
        <path d="M86,114.66667c-35.83333,0 -65.13783,-9.47792 -67.81817,-21.5h-0.26517c0,21.5 32.465,32.25 68.08333,32.25c35.61833,0 68.08333,-10.75 68.08333,-32.25h-0.26517c-2.68033,12.02208 -31.98483,21.5 -67.81817,21.5z"></path>
        <path d="M86,93.16667c-35.83333,0 -65.13783,-9.47792 -67.81817,-21.5h-0.26517c0,21.5 32.465,32.25 68.08333,32.25c35.61833,0 68.08333,-10.75 68.08333,-32.25h-0.26517c-2.68033,12.02208 -31.98483,21.5 -67.81817,21.5z"></path>
        <path d="M86,71.66667c-35.83333,0 -65.13783,-9.47792 -67.81817,-21.5h-0.26517c0,21.5 32.465,32.25 68.08333,32.25c35.61833,0 68.08333,-10.75 68.08333,-32.25h-0.26517c-2.68033,12.02208 -31.98483,21.5 -67.81817,21.5z"></path>
      </g>
      <g fill="#bf360c">
        <path d="M86,35.83333c-23.74824,0 -43,5.6151 -43,12.54167c0,6.92657 19.25176,12.54167 43,12.54167c23.74824,0 43,-5.6151 43,-12.54167c0,-6.92657 -19.25176,-12.54167 -43,-12.54167z"></path>
        <path d="M111.08333,116.45833c0,4.94858 -4.00975,8.95833 -8.95833,8.95833v0c-4.94858,0 -8.95833,-4.00975 -8.95833,-8.95833v-58.22917c0,-4.94858 17.91667,-4.94858 17.91667,0zM78.83333,82.99358c0,4.94858 -4.00975,8.95833 -8.95833,8.95833v0c-4.94858,0 -8.95833,-4.00975 -8.95833,-8.95833v-25.53125c0,-4.94858 17.91667,-4.94858 17.91667,0zM93.16667,46.58333c0,3.956 -3.21067,7.16667 -7.16667,7.16667v0c-3.956,0 -7.16667,-3.21067 -7.16667,-7.16667v21.5c0,-3.956 3.21067,-7.16667 7.16667,-7.16667v0c3.956,0 7.16667,3.21067 7.16667,7.16667zM111.08333,43v21.5c0,-3.956 3.225,-7.16667 5.00233,-7.16667c0,0 -5.00233,-10.37733 -5.00233,-14.33333zM60.91667,43v21.5c0,-3.956 -3.225,-7.16667 -5.00233,-7.16667c0,0 5.00233,-10.37733 5.00233,-14.33333z"></path>
      </g>
    </g>
  </g>
</svg>
