<svg
    xmlns="http://www.w3.org/2000/svg"
    x="0px"
    y="0px"
    width="48"
    height="48"
    viewBox="0 0 172 172"
    style=" fill:#000000;">
  <g
      fill="none"
      fill-rule="nonzero"
      stroke="none"
      stroke-width="1"
      stroke-linecap="butt"
      stroke-linejoin="miter"
      stroke-miterlimit="10"
      stroke-dasharray=""
      stroke-dashoffset="0"
      font-family="none"
      font-weight="none"
      font-size="none"
      text-anchor="none"
      style="mix-blend-mode: normal">
    <path
        d="M0,172v-172h172v172z"
        fill="none"></path>
    <g>
      <path
          d="M161.25,122.53925v20.31392c0,2.27542 -1.83108,4.0635 -4.0635,4.0635h-128.51983c-7.91558,0 -14.33333,-6.41775 -14.33333,-14.33333v-63.511c0,-2.709 1.5265,-5.18508 3.94883,-6.40342l52.47433,-26.37692c1.96367,-0.989 4.27492,-1.01767 6.26725,-0.08242l21.5,10.10142l-59.10708,30.54792v45.68033z"
          fill="#ffb74d"></path>
      <path
          d="M157.1865,129h-117.28967c-2.24317,0 -4.0635,-1.82033 -4.0635,-4.0635v-46.10317h125.41667v46.10317c0,2.24317 -1.82033,4.0635 -4.0635,4.0635z"
          fill="#ffecb3"></path>
      <path
          d="M158.93158,74.69458l-60.41142,-28.38358c-2.365,-1.10008 -5.10983,-0.99617 -7.38883,0.27233l-53.148,28.19008c-1.33658,0.731 -2.32917,2.60867 -2.15,4.05992c0.22575,1.83108 2.19658,3.58333 4.41108,3.55108l67.25558,0.0215c1.978,0 3.58333,1.60533 3.58333,3.58333v5.38575c0,2.967 2.408,5.375 5.375,5.375v0c2.967,0 5.375,-2.408 5.375,-5.375v-5.38217c0,-1.978 1.60533,-3.58333 3.58333,-3.58333h3.58333c1.978,0 3.58333,1.60533 3.58333,3.58333v16.13217c0,2.967 2.408,5.375 5.375,5.375v0c2.967,0 5.375,-2.408 5.375,-5.375v-16.125c0,-1.978 1.60533,-3.58333 3.58333,-3.58333h10.26983c1.90992,0 3.84133,-1.71283 4.0635,-3.58333c0.18992,-1.57308 -0.89583,-3.45075 -2.31842,-4.13875z"
          fill="#ad1457"></path>
      <path
          d="M92.50375,43c-1.98158,0 -3.58333,-1.60533 -3.58333,-3.58333c0,-1.978 1.60175,-3.58333 3.58333,-3.58333c4.79808,0 11.41292,-5.79783 11.41292,-10.00467c0,-1.978 1.60175,-3.58333 3.58333,-3.58333c1.98158,0 3.58333,1.60533 3.58333,3.58333c0,8.84367 -10.46692,17.17133 -18.57958,17.17133z"
          fill="#33691e"></path>
      <path
          d="M104.26067,47.27133c-0.75608,-5.17075 -4.30358,-6.41417 -6.15258,-8.4925c-3.57975,-4.80883 -5.11342,-10.20892 -11.77483,-10.11217c-7.9765,0.01075 -14.82425,5.246 -17.05667,12.52733c-0.03942,0.03583 -0.07525,0.07525 -0.07525,0.11467c-0.62708,1.978 -0.903,4.21758 -0.75608,6.37833c0.51242,14.63075 18.66917,21.63617 29.81333,13.13292c0.03942,-0.03583 0.03942,-0.03583 0.07525,-0.07525c4.30717,-3.03508 6.89792,-8.23808 5.92683,-13.47333z"
          fill="#d81b60"></path>
    </g>
  </g>
</svg>
