<svg
    xmlns="http://www.w3.org/2000/svg"
    x="0px"
    y="0px"
    width="48"
    height="48"
    viewBox="0 0 172 172"
    style=" fill:#000000;">
  <g
      fill="none"
      fill-rule="nonzero"
      stroke="none"
      stroke-width="1"
      stroke-linecap="butt"
      stroke-linejoin="miter"
      stroke-miterlimit="10"
      stroke-dasharray=""
      stroke-dashoffset="0"
      font-family="none"
      font-weight="none"
      font-size="none"
      text-anchor="none"
      style="mix-blend-mode: normal">
    <path
        d="M0,172v-172h172v172z"
        fill="none"></path>
    <g>
      <path
          d="M19.34642,129.946c1.72717,13.31208 10.65325,23.40633 23.27017,23.40633c61.8125,0 94.47458,-29.50158 94.47458,-29.50158c1.43333,-1.42975 19.76567,-18.28933 19.76567,-37.42075c0,-16.87392 -13.08275,-32.31808 -25.01525,-42.47683c-9.69292,-8.24525 -19.69042,-18.28933 -33.4325,-18.28933c-24.4025,0 -38.52442,9.27725 -44.12158,25.85017c10.07633,57.32975 -38.29867,52.62842 -34.94108,78.432z"
          fill="#f44336"></path>
      <path
          d="M89.225,92.83342c-0.07167,-0.129 -0.13617,-0.26158 -0.1935,-0.40492c-0.731,-1.84542 0.16842,-3.93808 2.01383,-4.66908c1.849,-0.73458 3.93808,0.16842 4.67267,2.01383c2.03533,5.13133 3.02433,10.19817 2.84517,15.59467c-0.16842,5.30692 -2.20017,10.84675 -6.05942,14.577c-1.96725,1.89917 -4.02767,3.13542 -5.89817,4.61175c-1.91708,1.45125 -3.8055,2.9455 -5.633,4.50783c-1.83467,1.55875 -3.612,3.17842 -5.26392,4.91992c-1.5695,1.76658 -3.354,3.56183 -3.956,5.91608c0.3225,-2.44742 1.90992,-4.49708 3.28233,-6.47867c1.45842,-1.96725 3.06375,-3.82342 4.72283,-5.61867c1.65908,-1.79883 3.37908,-3.53317 5.14208,-5.23525c1.74867,-1.73433 3.68367,-3.29667 4.99875,-4.97725c2.7305,-3.46508 3.70875,-7.83317 3.32533,-12.169c-0.35475,-4.29642 -1.892,-8.80783 -3.92017,-12.44492zM116.702,78.87633c-0.22575,-1.98875 1.20042,-3.78042 3.19275,-4.00617c1.98875,-0.22575 3.784,1.20042 4.00975,3.18917l0.00358,0.05733c0.29742,2.61942 0.26158,4.91992 0.09675,7.34225c-0.17558,2.39008 -0.56617,4.75867 -1.19683,7.05558c-1.23983,4.57592 -3.74458,8.944 -7.45692,11.55267c2.87383,-3.50808 3.90583,-7.87617 3.90942,-12.06867c0,-2.11417 -0.22217,-4.21042 -0.62708,-6.27083c-0.39417,-2.021 -0.97467,-4.16025 -1.68417,-5.88025c-0.11825,-0.29383 -0.20425,-0.63067 -0.24725,-0.97108zM109.79692,58.13242c0.25442,-0.172 0.52675,-0.32608 0.82058,-0.45508c2.71975,-1.22192 5.90892,-0.00358 7.13083,2.71975c1.22192,2.72333 0.00358,5.91608 -2.71975,7.138c-4.66192,2.0855 -9.09808,3.49733 -14.09683,4.28925c-2.47608,0.35833 -5.05967,0.53033 -7.7615,0.17917c-2.74842,-0.32608 -5.41442,-1.36167 -7.66117,-3.0315c-2.28258,-1.68417 -3.88792,-4.07425 -4.80167,-6.38908c-0.93167,-2.33275 -1.37242,-4.61533 -1.81317,-6.80475c-0.42642,-2.19658 -0.85283,-4.29642 -1.61967,-6.33175c-0.7955,-1.93858 -1.66983,-4.17817 -3.73383,-5.09908c2.29692,0.45508 3.78758,2.59792 5.0525,4.429c1.2685,1.92067 2.23242,4.06708 3.12825,6.106c1.72717,4.11367 3.79475,7.869 6.90867,9.04433c3.15333,1.30792 6.6435,0.95675 10.42033,-0.32967c3.66217,-1.23267 7.51067,-3.25725 10.64967,-5.41083z"
          fill="#ff8a80"></path>
      <path
          d="M122.1415,59.16442c-0.24008,4.085 -0.00358,8.67883 0.67008,12.92508c0.688,4.28567 1.87767,8.48892 4.02767,12.01133c1.12517,1.83108 2.31483,3.04583 4.26775,4.76942c1.8275,1.73792 3.45792,3.698 4.61892,5.9985c1.17175,2.26825 1.66983,4.94142 1.2685,7.39242c-0.37625,2.46533 -1.51575,4.60817 -2.75558,6.579c0.84925,-2.1715 1.51217,-4.4505 1.41542,-6.65783c-0.07883,-2.21092 -0.91017,-4.24267 -2.22167,-5.90533c-1.29358,-1.67342 -3.00283,-3.07808 -4.816,-4.2355c-1.79525,-1.02842 -4.32508,-2.70183 -6.01283,-4.62608c-3.55467,-3.8915 -5.848,-8.54625 -7.57875,-13.22967c-1.71283,-4.76583 -2.90967,-9.4385 -3.62633,-14.65583zM93.5465,111.34133c0.086,-0.989 0.96033,-1.72 1.94933,-1.63758c0.99258,0.08242 1.72717,0.95675 1.64117,1.94575l-0.00358,0.043c-0.26517,3.12108 -0.2365,6.42492 0.22575,9.589c0.2365,1.58742 0.60917,3.16408 1.23625,4.63325c0.63067,1.45483 1.55517,2.86308 3.01717,3.68367c-1.591,-0.53392 -2.86308,-1.83825 -3.8055,-3.25367c-0.946,-1.42975 -1.63758,-3.01717 -2.18942,-4.62967c-1.0965,-3.25367 -1.73433,-6.56825 -2.06758,-10.04408c-0.00717,-0.10392 -0.00717,-0.215 -0.00358,-0.32967z"
          fill="#ff8a80"></path>
      <path
          d="M109.82558,54.42367c8.48175,-30.50133 -27.26558,-29.17192 -34.88017,-27.82817c16.23967,-5.0955 32.12817,-10.26983 58.55883,18.84475c25.3055,23.0695 30.68767,38.99383 26.26942,51.084c3.35758,-21.05208 -29.77392,-55.857 -39.64242,-34.04167c-17.02083,37.625 -77.88733,63.77617 -81.96875,66.29167c-4.36808,2.6875 -8.78992,-2.46175 -5.375,-5.375c3.85567,-3.28233 65.39225,-27.09717 77.03808,-68.97558z"
          fill="#fbe9e7"></path>
      <path
          d="M14.878,135.52167l0.14692,-0.00717c1.27567,12.80683 10.89692,22.08767 24.92925,22.08767c70.0255,0 100.33333,-31.51542 100.33333,-31.51542c1.53367,-1.5265 21.05208,-19.48258 21.05208,-39.86458c0,-17.974 -13.94275,-34.4215 -26.65283,-45.23958c-10.32358,-8.78633 -20.97683,-19.48258 -35.61117,-19.48258c-15.953,0 -30.702,6.65425 -41.31942,16.90975l0.00717,0.08242c-8.61433,8.42442 -7.53575,18.08867 -6.57183,26.62058c0.91733,8.11267 1.7845,15.77742 -4.23192,23.63925c-4.50783,5.89458 -9.57825,10.18383 -14.47667,14.32617c-9.64992,8.17 -18.76233,15.88492 -17.60492,32.4435zM22.03392,132.58333c0,-1.07142 0.043,-2.01025 0.13258,-2.90608c0.08242,-0.74175 0.21142,-1.45483 0.35833,-2.15c0.37267,-1.60175 0.99617,-3.268 1.97442,-5.45025c2.65167,-5.02025 7.16667,-8.91533 12.61692,-13.53067c4.95217,-4.18892 10.5565,-8.94042 15.53733,-15.44417c7.77225,-10.15158 6.65067,-20.0595 5.66167,-28.79925c-0.92092,-8.18792 -1.64117,-14.66658 4.40392,-20.62567c9.46358,-9.39908 22.32775,-15.01058 36.3565,-15.01058c10.449,0 18.83042,7.267 27.69917,14.96042c1.0965,0.946 2.17867,1.88842 3.26442,2.81292c9.01208,7.66833 24.12658,23.03367 24.12658,39.78217c0,14.83858 -12.98242,29.01067 -18.56525,34.41792l-0.20067,0.20067c-1.66267,1.44767 -32.45067,30.40458 -95.45642,29.59833c-10.148,0.086 -17.9095,-7.67908 -17.9095,-17.85575z"
          fill="#ffccbc"></path>
    </g>
  </g>
</svg>
