<svg
    xmlns="http://www.w3.org/2000/svg"
    x="0px"
    y="0px"
    width="48"
    height="48"
    viewBox="0 0 172 172"
    style=" fill:#000000;">
  <g
      fill="none"
      fill-rule="nonzero"
      stroke="none"
      stroke-width="1"
      stroke-linecap="butt"
      stroke-linejoin="miter"
      stroke-miterlimit="10"
      stroke-dasharray=""
      stroke-dashoffset="0"
      font-family="none"
      font-weight="none"
      font-size="none"
      text-anchor="none"
      style="mix-blend-mode: normal">
    <path
        d="M0,172v-172h172v172z"
        fill="none"></path>
    <g>
      <path
          d="M104.56307,114.63165l10.13502,-10.13537l43.07534,43.07384l-10.13502,10.13537z"
          fill="#616161"></path>
      <path
          d="M71.66667,14.33333c-31.66433,0 -57.33333,25.66901 -57.33333,57.33333c0,31.66433 25.66901,57.33333 57.33333,57.33333c31.66433,0 57.33333,-25.66901 57.33333,-57.33333c0,-31.66433 -25.66901,-57.33333 -57.33333,-57.33333z"
          fill="#616161"></path>
      <path
          d="M116.30001,126.63845l10.13502,-10.13537l31.16628,31.16519l-10.13502,10.13537z"
          fill="#37474f"></path>
      <path
          d="M71.66667,25.08333c-25.72726,0 -46.58333,20.85607 -46.58333,46.58333c0,25.72726 20.85607,46.58333 46.58333,46.58333c25.72726,0 46.58333,-20.85607 46.58333,-46.58333c0,-25.72726 -20.85607,-46.58333 -46.58333,-46.58333z"
          fill="#64b5f6"></path>
      <path
          d="M96.39167,50.88333c-6.09167,-7.16667 -15.05,-11.46667 -24.725,-11.46667c-9.675,0 -18.63333,4.3 -24.725,11.46667c-1.43333,1.43333 -1.075,3.94167 0.35833,5.01667c1.43333,1.43333 3.94167,1.075 5.01667,-0.35833c5.01667,-5.73333 11.825,-8.95833 19.35,-8.95833c7.525,0 14.33333,3.225 19.35,8.95833c0.71667,0.71667 1.79167,1.43333 2.86667,1.43333c0.71667,0 1.79167,-0.35833 2.15,-0.71667c1.43333,-1.43333 1.43333,-3.94167 0.35833,-5.375z"
          fill="#bbdefb"></path>
    </g>
  </g>
</svg>
