<svg
    xmlns="http://www.w3.org/2000/svg"
    x="0px"
    y="0px"
    width="48"
    height="48"
    viewBox="0 0 172 172"
    style=" fill:#000000;">
  <g
      fill="none"
      fill-rule="nonzero"
      stroke="none"
      stroke-width="1"
      stroke-linecap="butt"
      stroke-linejoin="miter"
      stroke-miterlimit="10"
      stroke-dasharray=""
      stroke-dashoffset="0"
      font-family="none"
      font-weight="none"
      font-size="none"
      text-anchor="none"
      style="mix-blend-mode: normal">
    <path
        d="M0,172v-172h172v172z"
        fill="none"></path>
    <g>
      <path
          d="M81.96875,60.91308c0,-5.934 -4.81242,-10.74642 -10.74642,-10.74642c-1.58383,0 -3.0745,0.36192 -4.429,0.97825c-1.16817,-4.67267 -5.36067,-8.14492 -10.39525,-8.14492c-5.0955,0 -9.34175,3.55825 -10.44542,8.31692c-1.43692,-0.71308 -3.03508,-1.15025 -4.74792,-1.15025c-5.934,0 -10.74642,4.81242 -10.74642,10.74642c0,3.14258 1.37242,5.94475 3.526,7.912c-0.11467,0.78475 -0.18992,1.57667 -0.18992,2.38292c0,10.6425 10.11933,19.27117 22.60367,19.27117c12.48433,0 22.60367,-8.62867 22.60367,-19.27117c0,-0.903 -0.09675,-1.78092 -0.24008,-2.65167c1.978,-1.94575 3.20708,-4.65117 3.20708,-7.64325z"
          fill="#aed581"></path>
      <path
          d="M135.71875,60.91308c0,-5.934 -4.81242,-10.74642 -10.74642,-10.74642c-1.58383,0 -3.0745,0.36192 -4.429,0.97825c-1.16817,-4.67267 -5.36067,-8.14492 -10.39525,-8.14492c-5.0955,0 -9.34175,3.55825 -10.44542,8.31692c-1.43692,-0.71308 -3.03508,-1.15025 -4.74792,-1.15025c-5.934,0 -10.74642,4.81242 -10.74642,10.74642c0,3.14258 1.37242,5.94475 3.526,7.912c-0.11467,0.78475 -0.18992,1.57667 -0.18992,2.38292c0,10.6425 10.11933,19.27117 22.60367,19.27117c12.48433,0 22.60367,-8.62867 22.60367,-19.27117c0,-0.903 -0.09675,-1.78092 -0.24008,-2.65167c1.978,-1.94575 3.20708,-4.65117 3.20708,-7.64325z"
          fill="#689f38"></path>
      <path
          d="M99.32283,74.78417c12.64558,-14.86008 44.00692,-13.92125 51.17717,-13.8245c-0.56617,12.15825 1.3975,38.63908 -12.96808,51.50683c-10.28417,9.07658 -22.11992,8.0625 -28.99275,-8.80067c-14.64867,-1.79525 -18.03133,-18.26067 -9.21633,-28.88167z"
          fill="#8bc34a"></path>
      <path
          d="M36.55717,110.09075c15.9745,11.18358 37.98692,7.30283 49.17408,-8.67167l-57.84217,-40.50242c-11.18358,15.9745 -7.30283,37.98692 8.66808,49.17408z"
          fill="#ff5252"></path>
      <path
          d="M42.96775,100.93533c10.91842,7.64325 25.96483,4.99158 33.60808,-5.92683l-39.53492,-27.68125c-7.64325,10.91483 -4.988,25.96483 5.92683,33.60808z"
          fill="#ff8a65"></path>
      <circle
          cx="23.5"
          cy="22.5"
          transform="scale(3.58333,3.58333)"
          r="7"
          fill="#c5e1a5"></circle>
      <path
          d="M84.20833,107.5c-14.82067,0 -26.875,-12.05433 -26.875,-26.875c0,-14.82067 12.05433,-26.875 26.875,-26.875c14.82067,0 26.875,12.05433 26.875,26.875c0,14.82067 -12.05433,26.875 -26.875,26.875zM84.20833,57.33333c-12.84267,0 -23.29167,10.449 -23.29167,23.29167c0,12.84267 10.449,23.29167 23.29167,23.29167c12.84267,0 23.29167,-10.449 23.29167,-23.29167c0,-12.84267 -10.449,-23.29167 -23.29167,-23.29167z"
          fill="#558b2f"></path>
      <circle
          cx="23.5"
          cy="18.878"
          transform="scale(3.58333,3.58333)"
          r="1.25"
          fill="#fffde7"></circle>
      <circle
          cx="20.453"
          cy="23.75"
          transform="scale(3.58333,3.58333)"
          r="1.25"
          fill="#fffde7"></circle>
      <circle
          cx="26.547"
          cy="23.75"
          transform="scale(3.58333,3.58333)"
          r="1.25"
          fill="#fffde7"></circle>
      <path
          d="M64.5,132.58333h43v14.33333h-43z"
          fill="#006b6b"></path>
      <path
          d="M84.065,118.3145c0,0 1.17533,-0.44075 3.38267,-0.99617c1.26492,-0.20425 1.88125,-0.70592 2.97058,-1.37958c0.94242,-0.35117 2.26467,-1.11442 3.73742,-2.20375c0.61633,-0.49808 1.47275,-1.08575 2.08908,-1.58742c0.61633,-0.49808 1.47275,-1.08575 2.236,-1.90992c1.38317,-1.32225 2.91325,-2.967 4.44333,-4.61533c1.53008,-1.64475 2.97417,-3.526 4.41467,-5.40725c1.44408,-1.88125 3.12108,-3.85208 4.79808,-5.81933c1.677,-1.97083 3.354,-3.93808 5.12058,-5.67242c1.76658,-1.73433 3.44358,-3.70158 5.29617,-5.203c1.76658,-1.73433 3.70875,-2.99567 5.41442,-4.171c1.70567,-1.17533 3.73742,-2.20375 5.29617,-3.05658c1.79525,-0.93883 3.20708,-1.46917 4.85542,-2.0855c1.32225,-0.76325 2.67675,-0.73458 3.85208,-1.17533c2.20733,-0.559 3.38267,-0.99617 3.38267,-0.99617c0,0 -1.17533,0.44075 -3.20708,1.46917c-0.94242,0.35117 -2.35425,0.8815 -3.44358,1.55517c-1.32225,0.76325 -2.88458,1.61608 -4.35375,2.70183c-1.47275,1.08575 -3.17842,2.26108 -4.7945,3.67292c-1.61608,1.41183 -3.23575,2.82008 -4.67983,4.70133c-1.53008,1.64475 -2.97417,3.526 -4.41467,5.40725c-1.44408,1.88125 -2.795,3.999 -4.1495,6.11317c-1.3545,2.11775 -2.709,4.23192 -3.827,6.26008c-1.3545,2.11775 -2.4725,4.14592 -3.827,6.26008c-1.3545,2.11775 -2.795,3.999 -4.32867,5.64375c-0.76683,0.82417 -1.53008,1.64475 -2.29692,2.46892c-0.76683,0.82417 -1.53008,1.64475 -2.38292,2.23242c-1.61967,1.41183 -3.00283,2.73408 -4.56158,3.58333c-1.47275,1.08575 -3.0315,1.93858 -3.97033,2.28975c-2.35425,0.8815 -3.52958,1.32225 -3.52958,1.32225z"
          fill="#dcedc8"></path>
      <path
          d="M21.5,93.16667c0,28.30833 18.275,37.625 43.35833,46.58333h42.28333c25.08333,-8.6 43.35833,-18.275 43.35833,-46.58333z"
          fill="#00bcd4"></path>
      <path
          d="M147.275,111.08333c2.15,-5.01667 3.225,-10.75 3.225,-17.91667h-129c0,7.16667 1.075,12.9 3.225,17.91667z"
          fill="#006b6b"></path>
    </g>
  </g>
</svg>
