<svg
    xmlns="http://www.w3.org/2000/svg"
    x="0px"
    y="0px"
    width="48"
    height="48"
    viewBox="0 0 172 172"
    style=" fill:#000000;">
  <g
      fill="none"
      fill-rule="nonzero"
      stroke="none"
      stroke-width="1"
      stroke-linecap="butt"
      stroke-linejoin="miter"
      stroke-miterlimit="10"
      stroke-dasharray=""
      stroke-dashoffset="0"
      font-family="none"
      font-weight="none"
      font-size="none"
      text-anchor="none"
      style="mix-blend-mode: normal">
    <path
        d="M0,172v-172h172v172z"
        fill="none"></path>
    <g>
      <path
          d="M65.93333,18.99167c1.075,-0.71667 3.225,-1.075 6.09167,-1.075c21.14167,0.35833 86,22.21667 86,35.83333c0,15.40833 -43,60.91667 -57.33333,60.91667c-14.33333,0 -42.64167,-88.50833 -34.75833,-95.675z"
          fill="#ffa000"></path>
      <path
          d="M114.66667,72.74167c0,10.39167 -3.58333,25.44167 -8.95833,40.49167c-2.15,0.71667 -3.58333,1.43333 -5.375,1.43333c-1.43333,0 -3.58333,-1.075 -5.375,-3.225c5.01667,-14.33333 8.95833,-28.66667 8.6,-38.34167c0,-5.73333 -0.71667,-9.675 -3.58333,-10.75c-2.15,-0.71667 -5.01667,-1.43333 -8.6,-1.43333c-0.35833,0 -0.71667,0 -1.075,0c-5.01667,0 -11.46667,0.71667 -17.91667,1.79167c-1.075,-3.58333 -2.15,-7.16667 -3.225,-10.39167c7.525,-1.075 14.69167,-2.15 21.14167,-2.15v0c0.35833,0 0.71667,0 1.075,0c5.375,0 9.31667,0.71667 12.54167,2.15c10.39167,4.3 10.75,16.125 10.75,20.425zM129.35833,66.29167c0,2.86667 2.50833,5.375 5.375,5.375c2.86667,0 5.375,-2.50833 5.375,-5.375c0,-2.86667 -2.50833,-5.375 -5.375,-5.375c-2.86667,0 -5.375,2.50833 -5.375,5.375zM107.85833,39.41667c0,1.79167 1.43333,3.58333 3.58333,3.58333c1.79167,0 3.58333,-1.43333 3.58333,-3.58333c0,-2.15 -1.43333,-3.58333 -3.58333,-3.58333c-2.15,0 -3.58333,1.79167 -3.58333,3.58333zM74.89167,31.175c0,1.79167 1.43333,3.58333 3.58333,3.58333c1.79167,0 3.58333,-1.43333 3.58333,-3.58333c0,-2.15 -1.43333,-3.58333 -3.58333,-3.58333c-2.15,0 -3.58333,1.79167 -3.58333,3.58333zM132.94167,50.16667c0,1.79167 1.43333,3.58333 3.58333,3.58333c2.15,0 3.58333,-1.43333 3.58333,-3.58333c0,-2.15 -1.43333,-3.58333 -3.58333,-3.58333c-2.15,0 -3.58333,1.79167 -3.58333,3.58333zM118.25,86c0,1.79167 1.43333,3.58333 3.58333,3.58333c1.79167,0 3.58333,-1.43333 3.58333,-3.58333c0,-1.79167 -1.43333,-3.58333 -3.58333,-3.58333c-1.79167,0 -3.58333,1.79167 -3.58333,3.58333z"
          fill="#f57f17"></path>
      <path
          d="M14.33333,78.83333c3.225,-8.24167 54.10833,-21.85833 77.4,-21.5c3.58333,0 6.45,0.35833 8.6,1.43333c2.86667,1.075 3.58333,5.01667 3.58333,10.75c0.35833,25.44167 -21.85833,84.56667 -32.25,84.56667c-12.54167,0 -61.275,-65.575 -57.33333,-75.25z"
          fill="#ffc107"></path>
      <path
          d="M86,71.66667c2.15,0 3.58333,1.43333 3.58333,3.58333c0,2.15 -1.43333,3.58333 -3.58333,3.58333c-2.15,0 -3.58333,-1.43333 -3.58333,-3.58333c0,-2.15 1.43333,-3.58333 3.58333,-3.58333zM53.75,71.66667c0,2.15 1.43333,3.58333 3.58333,3.58333c2.15,0 3.58333,-1.43333 3.58333,-3.58333c0,-2.15 -1.43333,-3.58333 -3.58333,-3.58333c-2.15,0 -3.58333,1.43333 -3.58333,3.58333zM39.41667,93.16667c0,2.15 1.43333,3.58333 3.58333,3.58333c2.15,0 3.58333,-1.43333 3.58333,-3.58333c0,-2.15 -1.43333,-3.58333 -3.58333,-3.58333c-2.15,0 -3.58333,1.43333 -3.58333,3.58333zM78.83333,94.95833c0,2.86667 2.50833,5.375 5.375,5.375c2.86667,0 5.375,-2.50833 5.375,-5.375c0,-2.86667 -2.50833,-5.375 -5.375,-5.375c-2.86667,0 -5.375,2.50833 -5.375,5.375zM46.225,112.875c0,2.86667 2.50833,5.375 5.375,5.375c2.86667,0 5.375,-2.50833 5.375,-5.375c0,-2.86667 -2.50833,-5.375 -5.375,-5.375c-2.86667,0 -5.375,2.50833 -5.375,5.375zM71.66667,114.66667c0,1.79167 1.43333,3.58333 3.58333,3.58333c1.79167,0 3.58333,-1.43333 3.58333,-3.58333c0,-1.79167 -1.43333,-3.58333 -3.58333,-3.58333c-1.79167,0 -3.58333,1.79167 -3.58333,3.58333zM68.08333,136.16667c0,1.79167 1.43333,3.58333 3.58333,3.58333c1.79167,0 3.58333,-1.43333 3.58333,-3.58333c0,-1.79167 -1.43333,-3.58333 -3.58333,-3.58333c-1.79167,0 -3.58333,1.79167 -3.58333,3.58333zM60.91667,91.375c0,1.075 0.71667,1.79167 1.79167,1.79167c1.075,0 1.79167,-0.71667 1.79167,-1.79167c0,-1.075 -0.71667,-1.79167 -1.79167,-1.79167c-1.075,0 -1.79167,0.71667 -1.79167,1.79167z"
          fill="#f9a825"></path>
    </g>
  </g>
</svg>
