<svg
    xmlns="http://www.w3.org/2000/svg"
    x="0px"
    y="0px"
    width="48"
    height="48"
    viewBox="0 0 172 172"
    style=" fill:#000000;">
  <g
      fill="none"
      fill-rule="nonzero"
      stroke="none"
      stroke-width="1"
      stroke-linecap="butt"
      stroke-linejoin="miter"
      stroke-miterlimit="10"
      stroke-dasharray=""
      stroke-dashoffset="0"
      font-family="none"
      font-weight="none"
      font-size="none"
      text-anchor="none"
      style="mix-blend-mode: normal">
    <path
        d="M0,172v-172h172v172z"
        fill="none"></path>
    <g>
      <path
          d="M17.91667,96.75c-0.18275,-0.85283 -0.34042,-2.14283 0,-3.58333c3.40058,-14.33333 49.27083,-14.33333 68.08333,-14.33333c18.8125,0 64.68275,0 68.08333,14.33333c0.34042,1.4405 0.18275,2.7305 0,3.58333c-0.41208,6.01283 -2.24675,25.11558 -17.43292,39.89325c-10.019,9.74667 -25.8,17.44008 -50.65042,17.44008c-10.56008,0 -33.24975,0 -50.65042,-17.44008c-14.964,-14.99983 -17.02083,-33.884 -17.43292,-39.89325z"
          fill="#388e3c"></path>
      <path
          d="M144.98167,100.2975c-11.75333,4.3 -33.755,7.2025 -58.98167,7.2025c-1.1825,0 -2.40083,0 -3.58333,-0.03583c-12.82833,-0.1075 -24.725,-1.00333 -34.7225,-2.43667c-8.45667,-1.21833 -15.55167,-2.83083 -20.67583,-4.73c6.80833,-6.16333 30.6375,-10.71417 58.98167,-10.71417c28.34417,0 52.17333,4.55083 58.98167,10.71417z"
          fill="#fbc02d"></path>
      <ellipse
          cx="27.5"
          cy="27"
          transform="scale(3.58333,3.58333)"
          rx="3.5"
          ry="1"
          fill="#f57f17"></ellipse>
      <path
          d="M82.41667,103.88083c-12.82833,-0.1075 -24.725,-1.00333 -34.7225,-2.43667c2.50833,-2.72333 9.10167,-4.69417 16.80583,-4.69417c9.85417,0 17.88083,3.18917 17.91667,7.13083z"
          fill="#f57f17"></path>
      <path
          d="M86,111.08333c-26.62058,0 -71.66667,-3.77325 -71.66667,-17.91667c0,-14.14342 45.04608,-17.91667 71.66667,-17.91667c26.62058,0 71.66667,3.77325 71.66667,17.91667c0,14.14342 -45.04608,17.91667 -71.66667,17.91667zM86,82.41667c-39.86817,0 -63.19208,7.0735 -64.51433,10.86467c1.32225,3.56183 24.64617,10.63533 64.51433,10.63533c39.46683,0 62.71908,-6.93375 64.46775,-10.75c-1.74867,-3.81625 -25.00092,-10.75 -64.46775,-10.75z"
          fill="#7cb342"></path>
      <path
          d="M155.88933,53.71417l-3.827,-2.74842c-1.91708,-1.376 -4.58308,-0.93167 -5.95192,0.989c-10.48125,14.93175 -20.9625,29.8635 -31.44375,44.79525c1.19325,0 2.39008,0 3.58333,0c1.19325,0 2.39008,0 3.58333,0c1.19325,0 2.39008,0 3.58333,0c10.48483,-12.36608 20.97325,-24.73575 31.45808,-37.10183c1.36167,-1.9135 0.92092,-4.56517 -0.98542,-5.934z"
          fill="#616161"></path>
      <path
          d="M101.38683,66.84708c-6.52883,-7.525 -9.21275,-14.57342 -7.98008,-20.94817c0.95675,-4.9235 3.87358,-8.00517 6.45,-10.7285c2.46892,-2.61225 3.99542,-4.33942 4.25342,-6.86567c0.34042,-3.36117 -1.70925,-7.19175 -6.08092,-11.38783l4.96292,-5.17075c6.04867,5.80142 8.82217,11.61358 8.25242,17.27883c-0.516,5.08475 -3.52242,8.26675 -6.18125,11.0725c-2.17508,2.30408 -4.05992,4.29283 -4.61892,7.16667c-0.7955,4.09933 1.34375,9.10883 6.35683,14.88517z"
          fill="#e0e0e0"></path>
      <path
          d="M83.47017,66.84708c-6.52883,-7.525 -9.21275,-14.57342 -7.98008,-20.94817c0.95675,-4.9235 3.87358,-8.00517 6.45,-10.7285c2.46892,-2.61225 3.99542,-4.33942 4.25342,-6.86567c0.34042,-3.36117 -1.70925,-7.19175 -6.08092,-11.38783l4.96292,-5.17075c6.04867,5.80142 8.82217,11.61358 8.25242,17.27883c-0.516,5.08475 -3.52242,8.26675 -6.18125,11.0725c-2.17508,2.30408 -4.05992,4.29283 -4.61892,7.16667c-0.7955,4.09933 1.34375,9.10883 6.35683,14.88517z"
          fill="#e0e0e0"></path>
      <path
          d="M65.5535,66.84708c-6.52883,-7.525 -9.21275,-14.57342 -7.98008,-20.94817c0.95675,-4.9235 3.87358,-8.00517 6.45,-10.7285c2.46892,-2.61225 3.99542,-4.33942 4.25342,-6.86567c0.34042,-3.36117 -1.70925,-7.19175 -6.08092,-11.38783l4.96292,-5.17075c6.04867,5.80142 8.82217,11.61358 8.25242,17.27883c-0.516,5.08475 -3.52242,8.26675 -6.18125,11.0725c-2.17508,2.30408 -4.05992,4.29283 -4.61892,7.16667c-0.7955,4.09933 1.34375,9.10883 6.35683,14.88517z"
          fill="#e0e0e0"></path>
    </g>
  </g>
</svg>
